<svg width="128" height="128" viewBox="0 0 128 128" fill="none" xmlns="http://www.w3.org/2000/svg">
<path d="M0 40C0 17.9086 17.9086 0 40 0H88C110.091 0 128 17.9086 128 40V88C128 110.091 110.091 128 88 128H40C17.9086 128 0 110.091 0 88V40Z" fill="url(#paint0_linear_9088_14981)"/>
<path d="M51.0253 86.1591L35.866 59.9025C35.4881 59.2479 35.2891 58.5055 35.2891 57.7497C35.2891 56.9939 35.4881 56.2514 35.866 55.5969L51.0253 29.353C51.4032 28.6984 51.9468 28.1549 52.6014 27.777C53.2559 27.3991 53.9985 27.2002 54.7543 27.2002H85.0602C85.8161 27.2002 86.5586 27.3991 87.2132 27.777C87.8678 28.1549 88.4113 28.6984 88.7892 29.353L104 55.6224L96.5419 59.9281L82.6255 35.8371H57.2403L44.5669 57.7752L58.4833 81.879L51.0253 86.1591Z" fill="#9C6CFF"/>
<path d="M73.2456 100.448H42.8755C42.1197 100.448 41.3772 100.249 40.7226 99.8711C40.0681 99.4932 39.5245 98.9496 39.1466 98.2951L24 72.0641L31.4451 67.7585L45.3615 91.8623H70.6827L83.3433 69.9113L69.4397 45.8203L76.8849 41.5146L92.0442 67.7585C92.4221 68.413 92.6211 69.1555 92.6211 69.9113C92.6211 70.6671 92.4221 71.4096 92.0442 72.0641L76.8849 98.3207C76.5134 98.9592 75.983 99.4906 75.3453 99.8634C74.7075 100.236 73.9842 100.438 73.2456 100.448Z" fill="#05D2DD"/>
<defs>
<linearGradient id="paint0_linear_9088_14981" x1="64" y1="0" x2="64" y2="128" gradientUnits="userSpaceOnUse">
<stop stop-color="#212121"/>
<stop offset="1" stop-color="#171717"/>
</linearGradient>
</defs>
</svg>
